<?xml version="1.0" encoding="UTF-8"?>
<!DOCTYPE svg PUBLIC "-//W3C//DTD SVG 1.1//EN" "http://www.w3.org/Graphics/SVG/1.1/DTD/svg11.dtd">
<!-- Creator: CorelDRAW 2021 (64 Bit) -->
<svg xmlns="http://www.w3.org/2000/svg" xml:space="preserve" width="9449px" height="9449px" version="1.1" style="shape-rendering:geometricPrecision; text-rendering:geometricPrecision; image-rendering:optimizeQuality; fill-rule:evenodd; clip-rule:evenodd"
viewBox="0 0 9447.82 9447.82"
 xmlns:xlink="http://www.w3.org/1999/xlink"
 xmlns:xodm="http://www.corel.com/coreldraw/odm/2003">
 <defs>
  <style type="text/css">
   <![CDATA[
    .fil2 {fill:#063C69}
    .fil1 {fill:#15AFF8}
    .fil4 {fill:#C9E0EF}
    .fil0 {fill:#FBFDFF}
    .fil5 {fill:url(#id0)}
    .fil6 {fill:url(#id1)}
    .fil3 {fill:url(#id2)}
   ]]>
  </style>
  <linearGradient id="id0" gradientUnits="userSpaceOnUse" x1="5769.65" y1="5166.88" x2="4283.99" y2="3039.85">
   <stop offset="0" style="stop-opacity:1; stop-color:#057AE2"/>
   <stop offset="0.388235" style="stop-opacity:1; stop-color:#0DA7EC"/>
   <stop offset="1" style="stop-opacity:1; stop-color:#16D5F6"/>
  </linearGradient>
  <linearGradient id="id1" gradientUnits="userSpaceOnUse" x1="3916.42" y1="4298.89" x2="5529.84" y2="4684.1">
   <stop offset="0" style="stop-opacity:1; stop-color:#0155AD"/>
   <stop offset="0.658824" style="stop-opacity:1; stop-color:#0778C9"/>
   <stop offset="1" style="stop-opacity:1; stop-color:#0D9BE6"/>
  </linearGradient>
  <radialGradient id="id2" gradientUnits="userSpaceOnUse" gradientTransform="matrix(1.17084 -3.79928E-06 1.15011E-17 0.0889986 -791 5068)" cx="4630.52" cy="5563.06" r="1215.01" fx="4630.52" fy="5563.06">
   <stop offset="0" style="stop-opacity:1; stop-color:#DAEFFA"/>
   <stop offset="1" style="stop-opacity:1; stop-color:#FCFBFE"/>
  </radialGradient>
 </defs>
 <g id="Camada_x0020_1">
  <metadata id="CorelCorpID_0Corel-Layer"/>
  <g id="_2648415042112">
   <rect class="fil0" width="9447.82" height="9447.82"/>
   <path class="fil1" d="M5266.93 5827.19c-7.48,-20.15 -26.71,-33.52 -48.21,-33.52 -21.5,0 -40.73,13.36 -48.22,33.52l0 577.8c7.49,20.15 26.72,33.52 48.22,33.52 21.5,0 40.73,-13.37 48.21,-33.52l0 -577.8zm224.72 213.33c110.46,0 200,87.55 200,195.55 0,108 -89.54,195.56 -200,195.56 -110.46,0 -200,-87.56 -200,-195.56 0,-108 89.54,-195.55 200,-195.55zm0 92.4c58.26,0 105.49,46.19 105.49,103.15 0,56.97 -47.23,103.15 -105.49,103.15 -58.26,0 -105.49,-46.18 -105.49,-103.15 0,-56.96 47.23,-103.15 105.49,-103.15zm584.95 -70.3l0 342.37c-7.49,20.15 -26.72,33.52 -48.22,33.52 -21.49,0 -40.72,-13.37 -48.21,-33.52l0 -33.56c-32.47,44.49 -88.4,65.24 -142.04,52.71 -53.63,-12.54 -94.57,-55.94 -103.95,-110.21l0 -251.31c7.48,-20.15 26.71,-33.52 48.21,-33.52 21.5,0 40.73,13.37 48.22,33.52l0 201.43c1.5,40.21 34.54,72.03 74.78,72.03 40.24,0 73.27,-31.82 74.78,-72.03l0 -201.43c7.49,-20.15 26.72,-33.52 48.21,-33.52 21.5,0 40.73,13.37 48.22,33.52zm239.23 69.45c58.26,0 105.49,46.19 105.49,103.15 0,56.97 -47.23,103.15 -105.49,103.15 -58.26,0 -105.49,-46.18 -105.49,-103.15 0,-56.96 47.23,-103.15 105.49,-103.15zm195.52 -303.75l0 576.67c-7.49,20.15 -26.72,33.52 -48.22,33.52 -32.44,0 -48.22,-21.27 -48.22,-51.05 -79.2,67.52 -186.48,52.7 -250.09,-30.88 -58.17,-76.42 -63.62,-180.04 0,-251.99 63.61,-71.96 170.89,-85.2 250.09,-30.88l0 -245.39c7.49,-20.15 26.72,-33.52 48.22,-33.52 21.5,0 40.73,13.37 48.22,33.52zm-1782.5 327.18c0,38.53 7.74,76.25 22.36,111.08 39.27,93.57 125.88,165.06 230.38,165.06 62.99,0 123.24,-25.75 166.76,-71.29 5.9,-13.4 3.26,-29.02 -6.72,-39.73 -9.98,-10.71 -25.38,-14.45 -36.82,-10.17 -60.23,60.35 -159.32,64.96 -226.02,8.5 -101.41,-85.87 -102.48,-249.74 0,-332.47 63.97,-51.64 156.77,-47.77 223.68,0 13.78,4.94 29.18,1.2 39.16,-9.51 9.98,-10.71 12.62,-26.33 6.72,-39.73 -141.13,-121.96 -327.57,-46.67 -394.36,101.19 -16.6,36.8 -25.17,76.71 -25.14,117.07z"/>
   <path class="fil2" d="M3136.48 6039.67c110.45,0 199.99,87.55 199.99,195.55 0,108 -89.54,195.56 -199.99,195.56 -110.46,0 -200.01,-87.56 -200.01,-195.56 0,-108 89.55,-195.55 200.01,-195.55zm0 92.4c58.26,0 105.49,46.19 105.49,103.15 0,56.97 -47.23,103.15 -105.49,103.15 -58.27,0 -105.5,-46.18 -105.5,-103.15 0,-56.96 47.23,-103.15 105.5,-103.15zm415.31 0c58.26,0 105.49,46.19 105.49,103.15 0,56.97 -47.23,103.15 -105.49,103.15 -58.26,0 -105.49,-46.18 -105.49,-103.15 0,-56.96 47.23,-103.15 105.49,-103.15zm195.52 -303.75l0 576.67c-7.49,20.15 -26.72,33.52 -48.22,33.52 -32.44,0 -48.21,-21.27 -48.21,-51.05 -79.21,67.52 -186.49,52.7 -250.1,-30.88 -58.17,-76.42 -63.62,-180.04 0,-251.99 63.62,-71.96 170.89,-85.2 250.1,-30.88l0 -245.39c7.49,-20.15 26.72,-33.52 48.21,-33.52 21.5,0 40.73,13.37 48.22,33.52zm236.97 212.2c110.46,0 200,87.55 200,195.55 0,108 -89.54,195.56 -200,195.56 -110.46,0 -200,-87.56 -200,-195.56 0,-108 89.54,-195.55 200,-195.55zm0 92.4c58.26,0 105.49,46.19 105.49,103.15 0,56.97 -47.23,103.15 -105.49,103.15 -58.26,0 -105.49,-46.18 -105.49,-103.15 0,-56.96 47.23,-103.15 105.49,-103.15zm225.35 272.07l0 -342.37c7.48,-20.15 26.71,-33.52 48.21,-33.52 21.5,0 40.73,13.37 48.22,33.52l0 33.56c32.47,-44.49 88.4,-65.25 142.04,-52.71 53.63,12.54 94.56,55.94 103.95,110.21l0 251.31c-7.49,20.15 -26.72,33.52 -48.21,33.52 -21.5,0 -40.73,-13.37 -48.22,-33.52l0 -201.43c-1.51,-40.21 -34.54,-72.03 -74.78,-72.03 -40.24,0 -73.28,31.82 -74.78,72.03l0 201.43c-7.49,20.15 -26.72,33.52 -48.22,33.52 -21.5,0 -40.73,-13.37 -48.21,-33.52zm366.18 -275.19l24.44 0c0,0 0,61.84 0,185.54 23.01,90.05 74.33,128.81 153.96,116.29 20.16,-7.49 33.53,-26.72 33.53,-48.22 0,-21.5 -12.04,-47.49 -33.53,-48.21 -30.76,-1.04 -47.38,-4.32 -51.46,-30.33 0,-116.71 0,-175.07 0,-175.07l41.15 0c20.16,-7.49 33.53,-26.72 33.53,-48.22 0,-21.49 -13.37,-40.72 -33.53,-48.21l-41.15 0 0 -80.08c-8.95,-20.31 -29.05,-33.41 -51.25,-33.41 -22.19,0 -42.29,13.1 -51.25,33.41l0 80.08 -24.44 0c-20.15,7.49 -33.52,26.72 -33.52,48.21 0,21.5 13.37,40.73 33.52,48.22z"/>
   <path class="fil3" d="M6280.32 5582.2c-1031.63,157.47 -2081.19,157.47 -3112.82,0 1031.59,-158.04 2081.23,-158.04 3112.82,0z"/>
   <g>
    <path class="fil4" d="M4559.37 5107.17c-7.35,-244.5 27.68,-412.68 113.49,-496.7 24.02,-23.52 66.13,-23.52 90.15,0 85.81,84.03 120.84,252.2 113.49,496.7 -0.24,8.27 2.75,16.15 8.03,22.22 99.44,-189.55 88.31,-527.98 -143.43,-606.17 -15.22,-5.14 -31.7,-5.14 -46.92,0 -231.92,78.24 -242.86,416.97 -143.21,606.59 5.51,-6.13 8.65,-14.18 8.4,-22.64z"/>
    <path class="fil5" d="M4509.16 5136.16c-98.23,-56.86 -184.62,-179.26 -206.75,-375.92 -19.09,-169.62 -11.43,-306.62 -65.68,-387.14 -198.93,-295.25 -215.97,-527.37 0,-699.15 131.34,-104.47 283.04,-27.71 417.03,28.06 90.52,37.67 163.28,-19.89 247.14,-53.73 110,-44.39 216.08,-39.68 298.24,25.67 215.97,171.78 198.93,403.9 0,699.15 -54.25,80.52 -46.58,217.52 -65.67,387.14 -22.14,196.66 -108.53,319.06 -206.76,375.92 -10.42,6.03 -23.2,6.3 -33.63,0.28 -3.26,-1.89 -6.14,-4.28 -8.55,-7.05 -5.28,-6.07 -8.27,-13.95 -8.03,-22.22 7.35,-244.5 -27.68,-412.67 -113.49,-496.7 -24.02,-23.52 -66.13,-23.52 -90.15,0 -85.81,84.02 -120.84,252.2 -113.49,496.7 0.25,8.46 -2.89,16.51 -8.4,22.64 -2.33,2.59 -5.08,4.84 -8.18,6.63 -10.43,6.02 -23.21,5.75 -33.63,-0.28zm1767.73 -1037.6c-168.73,-194.05 -428.59,-282.67 -680.73,-232.15 -12.8,-322.56 -198.79,-613.06 -486.37,-759.7 -287.59,-146.64 -631.95,-126.55 -900.53,52.53 -268.58,179.09 -419.53,489.25 -394.73,811.11 -239.66,-58.37 -491.89,21.24 -654.62,206.61 -162.72,185.37 -208.99,445.79 -120.06,675.87 88.92,230.07 298.31,391.69 543.4,419.43l2282.27 0c252.96,-46.25 461.66,-224.65 546.72,-467.32 85.05,-242.68 33.39,-512.33 -135.35,-706.38zm-1457.19 -1007.69c-350.86,-11.81 -681.51,163.93 -868.02,461.35 142.4,-341.01 505.7,-534.1 868.02,-461.35zm-1064.92 943.18c-243.93,-14.24 -477.45,100.57 -615.13,302.44 94.3,-246.26 362.54,-378.14 615.13,-302.44zm531.85 -267.6c132.46,-13.3 261.86,56.39 389.92,87.95 114.01,28.11 210.13,-2.53 282.42,-62.54 -66.85,36.21 -175.67,27.81 -327.37,-22.48 -125.59,-41.62 -240.88,-41.68 -344.97,-2.93z"/>
    <path class="fil6" d="M4443.2 5085.74c77.61,124.35 116.42,186.52 116.42,186.52l550.62 0c0,0 117.03,-222.76 351.1,-668.28 145.61,-224.29 100.18,-482.83 -136.29,-775.61 67.16,148.95 18.65,330.17 -125.91,544.73 -54.25,80.52 -46.58,217.52 -65.67,387.14 -22.14,196.66 -108.53,319.06 -206.76,375.92 -10.42,6.03 -23.2,6.3 -33.63,0.28 -3.26,-1.89 -6.14,-4.28 -8.55,-7.05 -5.28,-6.07 -8.27,-13.95 -8.03,-22.22 7.35,-244.5 -27.68,-412.67 -113.49,-496.7 -24.02,-23.52 -66.13,-23.52 -90.15,0 -85.81,84.02 -120.84,252.2 -113.49,496.7 0.25,8.46 -2.89,16.51 -8.4,22.64 -2.33,2.59 -5.08,4.84 -8.18,6.63 -10.43,6.02 -23.21,5.75 -33.63,-0.28 -22.85,-13.23 -45.05,-30 -65.96,-50.42z"/>
   </g>
  </g>
 </g>
</svg>
